HIERARCHY
ROOT Hips
{
	OFFSET 0.0000 0.0000 0.0000
	CHANNELS 6 Xposition Yposition Zposition Zrotation Xrotation Yrotation
	JOINT Spine1
	{
		OFFSET -0.0137 5.0038 -0.0537
		CHANNELS 3 Zrotation Xrotation Yrotation
		JOINT Spine2
		{
			OFFSET -0.0000 7.1253 -0.0298
			CHANNELS 3 Zrotation Xrotation Yrotation
			JOINT Chest
			{
				OFFSET -0.0000 7.5501 -0.8160
				CHANNELS 3 Zrotation Xrotation Yrotation
				JOINT Neck1
				{
					OFFSET -0.1817 26.3113 -0.5533
					CHANNELS 3 Zrotation Xrotation Yrotation
					JOINT Neck2
					{
						OFFSET -0.0000 7.7094 2.3026
						CHANNELS 3 Zrotation Xrotation Yrotation
						JOINT Head
						{
							OFFSET -0.0000 6.1289 1.9537
							CHANNELS 3 Zrotation Xrotation Yrotation
							JOINT Jaw
							{
								OFFSET 0.0026 0.4756 3.0949
								CHANNELS 3 Zrotation Xrotation Yrotation
								End Site
								{
									OFFSET 0.0 1.0 0.0
								}
							}
							JOINT LeftEye
							{
								OFFSET 3.2064 5.3802 7.5869
								CHANNELS 3 Zrotation Xrotation Yrotation
								End Site
								{
									OFFSET 0.0 1.0 0.0
								}
							}
							JOINT RightEye
							{
								OFFSET -3.2224 5.3619 7.5582
								CHANNELS 3 Zrotation Xrotation Yrotation
								End Site
								{
									OFFSET 0.0 1.0 0.0
								}
							}
						}
					}
				}
				JOINT LeftShoulder
				{
					OFFSET 1.6217 23.2372 5.1134
					CHANNELS 3 Zrotation Xrotation Yrotation
					JOINT LeftArm
					{
						OFFSET 14.9198 0.0000 -5.5023
						CHANNELS 3 Zrotation Xrotation Yrotation
						JOINT LeftForeArm
						{
							OFFSET 28.7393 0.0000 -0.0026
							CHANNELS 3 Zrotation Xrotation Yrotation
							JOINT LeftHand
							{
								OFFSET 27.0940 -0.0000 0.0026
								CHANNELS 3 Zrotation Xrotation Yrotation
								JOINT LeftHandThumbEnd
								{
									OFFSET 12.2686 -3.2202 4.8331
									CHANNELS 3 Zrotation Xrotation Yrotation
									End Site
									{
										OFFSET 0.0 1.0 0.0
									}
								}
								JOINT LeftHandMiddleEnd
								{
									OFFSET 19.0120 -0.3129 -0.0340
									CHANNELS 3 Zrotation Xrotation Yrotation
									End Site
									{
										OFFSET 0.0 1.0 0.0
									}
								}
							}
						}
					}
				}
				JOINT RightShoulder
				{
					OFFSET -1.3801 23.1803 5.2142
					CHANNELS 3 Zrotation Xrotation Yrotation
					JOINT RightArm
					{
						OFFSET -15.0372 0.0000 -5.5456
						CHANNELS 3 Zrotation Xrotation Yrotation
						JOINT RightForeArm
						{
							OFFSET -28.7366 0.0000 -0.0026
							CHANNELS 3 Zrotation Xrotation Yrotation
							JOINT RightHand
							{
								OFFSET -27.1336 -0.0000 0.0026
								CHANNELS 3 Zrotation Xrotation Yrotation
								JOINT RightHandThumbEnd
								{
									OFFSET -12.2642 -3.2115 4.8040
									CHANNELS 3 Zrotation Xrotation Yrotation
									End Site
									{
										OFFSET 0.0 1.0 0.0
									}
								}
								JOINT RightHandMiddleEnd
								{
									OFFSET -19.0006 -0.3066 -0.0316
									CHANNELS 3 Zrotation Xrotation Yrotation
									End Site
									{
										OFFSET 0.0 1.0 0.0
									}
								}
							}
						}
					}
				}
			}
		}
	}
	JOINT LeftLeg
	{
		OFFSET 10.0432 -8.4345 2.5957
		CHANNELS 3 Zrotation Xrotation Yrotation
		JOINT LeftShin
		{
			OFFSET -0.0000 -43.2218 -0.8029
			CHANNELS 3 Zrotation Xrotation Yrotation
			JOINT LeftFoot
			{
				OFFSET 0.0000 -42.1551 -3.4815
				CHANNELS 3 Zrotation Xrotation Yrotation
				JOINT LeftToeBase
				{
					OFFSET 0.0000 -5.0595 13.2315
					CHANNELS 3 Zrotation Xrotation Yrotation
					End Site
					{
						OFFSET 0.0 1.0 0.0
					}
				}
			}
		}
	}
	JOINT RightLeg
	{
		OFFSET -10.0473 -8.2953 2.6203
		CHANNELS 3 Zrotation Xrotation Yrotation
		JOINT RightShin
		{
			OFFSET 0.0000 -43.3622 -0.8056
			CHANNELS 3 Zrotation Xrotation Yrotation
			JOINT RightFoot
			{
				OFFSET 0.0000 -42.1174 -3.4784
				CHANNELS 3 Zrotation Xrotation Yrotation
				JOINT RightToeBase
				{
					OFFSET -0.0000 -5.0796 13.2842
					CHANNELS 3 Zrotation Xrotation Yrotation
					End Site
					{
						OFFSET 0.0 1.0 0.0
					}
				}
			}
		}
	}
}
MOTION
Frames: 5
Frame Time: 0.033333
-62.0164 98.5669 368.6593 -2.2399 -2.8075 -3.6578 2.3600 0.4189 0.2580 -0.3330 -4.2352 1.7970 -1.6392 9.5985 -0.3650 1.3257 0.1708 2.0804 -0.7620 -3.5238 -0.9420 -1.5759 -18.9017 -0.9356 0.0149 0.0960 -0.0471 0.5336 -10.4547 -3.9119 -0.5166 -10.4652 3.8111 -18.2046 11.7649 -5.8424 -61.0539 13.7217 -2.5853 0.1972 -0.2013 -34.1489 3.3889 -3.5415 0.7451 -15.4177 10.7988 15.6165 -60.5920 1.6391 2.0867 14.1518 8.6616 13.8373 50.8132 2.4816 10.9748 0.2864 -0.0027 39.0639 -2.7461 3.5336 1.5514 15.4485 7.4013 -16.2178 49.8017 -3.5130 -4.8629 0.6705 -24.5443 13.3786 0.0425 10.9091 0.3537 -6.6844 2.9654 8.8241 1.7098 -10.3686 -2.3833 1.9531 13.5505 -6.7292 -0.0924 1.5657 0.0668 5.0785 -9.8923 -5.1597 -1.4394 -6.4200 1.0905
-62.1589 97.8566 372.9355 -2.2187 -2.3336 -4.2601 2.3578 0.1920 0.2046 -0.3366 -4.3454 1.9245 -1.3139 9.5636 -0.1183 0.9778 -0.1574 2.2134 -0.8415 -3.4570 -0.8682 -1.7723 -18.9297 -0.6768 0.0279 0.1092 -0.0018 0.5226 -10.4404 -3.8715 -0.4819 -10.4426 3.8549 -18.7653 11.7252 -5.6691 -60.8334 14.3572 -2.0684 0.1700 -0.2775 -33.5694 2.9405 -3.1767 0.8397 -15.4932 10.7015 15.5855 -60.6686 1.5585 2.0832 13.8351 8.3542 14.1026 49.5510 2.5611 13.0823 0.3964 -0.0313 38.8585 -1.5630 5.3588 0.8297 15.4243 7.4450 -16.2901 49.9409 -3.5446 -5.1127 0.8577 -25.3391 11.7681 -0.0880 2.5825 0.0756 -8.1590 1.7451 9.4616 1.5514 -9.6558 -2.4548 1.3586 15.6020 -6.8672 -0.0567 1.6984 -0.0633 5.3371 -11.1855 -4.3637 -1.4419 -6.7843 0.9679
-62.0998 97.0499 377.2639 -1.9916 -1.9958 -4.9814 2.2392 0.0242 0.2109 -0.3718 -4.4288 2.0141 -1.1245 9.7002 -0.1411 0.5886 -0.5090 2.3924 -0.7930 -3.4421 -0.8134 -1.9878 -19.0574 -0.1880 0.0145 0.1184 -0.0341 0.5245 -10.3627 -3.8870 -0.5112 -10.3681 3.8132 -19.2649 11.3929 -5.5559 -60.4435 15.0949 -1.7992 0.1309 -0.2425 -32.9397 2.5138 -2.8904 1.0193 -15.5705 10.5853 15.5360 -60.7424 1.5695 2.0562 14.0337 8.1305 14.3203 48.2919 2.4248 14.5191 0.3201 0.0549 39.0929 -0.8332 6.4504 0.5851 15.3509 7.4236 -16.3808 49.9289 -3.6693 -5.1484 1.0972 -27.0469 10.1484 -0.0799 1.0183 -0.0807 -9.8762 0.3306 10.4968 1.5061 -9.3209 -2.4514 0.4527 17.4542 -6.8294 -0.0943 2.4436 -0.0732 5.8945 -12.0679 -3.9627 -1.4299 -7.5613 0.9477
-61.8417 96.2986 381.7254 -1.1405 -1.8708 -5.9238 1.8120 -0.1551 0.2545 -0.4165 -4.5338 2.1181 -1.2937 9.7626 -0.3357 0.2295 -0.5694 2.5752 -0.6697 -3.3744 -0.5677 -2.1011 -19.0230 0.3908 0.0112 0.1243 -0.0472 0.5490 -10.3471 -3.9001 -0.5412 -10.3599 3.8026 -19.5423 11.2790 -5.4040 -60.0922 15.5967 -1.8331 0.0526 -0.1096 -32.2500 2.1305 -2.4861 1.3115 -15.6329 10.6356 15.5937 -60.8625 1.6618 2.0128 14.0629 8.3148 14.4445 48.2350 1.7978 14.9652 0.0580 0.2081 39.5815 -1.0204 6.6865 0.7786 15.4086 7.4646 -16.4206 49.8739 -3.7297 -5.1744 0.7015 -26.4301 8.9722 -0.1062 1.1157 -0.1758 -11.1243 -0.0846 10.4787 1.5469 -9.6345 -2.4741 -1.3676 18.6287 -6.9141 -0.1454 5.0710 0.0331 6.8518 -12.5640 -3.7013 -1.4301 -9.3252 1.0152
-61.4151 95.8558 386.5580 0.7254 -1.5503 -6.9829 0.7367 -0.7085 0.3379 -0.4937 -4.8070 2.1648 -1.7325 9.8244 -0.4341 -0.0378 -0.5041 2.7288 -0.5734 -3.3557 -0.1189 -2.1615 -18.3665 0.8726 0.0168 0.1184 -0.0555 0.5659 -10.4063 -3.9227 -0.5441 -10.4194 3.8067 -20.2954 10.9717 -5.4044 -59.1802 16.0613 -1.4570 -0.1012 0.0032 -31.6494 1.8301 -1.9029 1.4205 -15.7269 10.7101 15.6751 -60.8380 1.6562 2.0928 14.6513 8.3966 14.3384 48.4789 1.7393 14.2864 -0.0320 0.2770 40.3045 -1.8328 6.3495 1.2340 15.3629 7.5877 -16.4209 49.9977 -3.6281 -5.2023 -1.0193 -24.4787 7.8258 -0.1594 2.0205 -0.3846 -10.8761 0.9673 9.9140 1.6356 -10.6744 -2.5273 -4.6787 18.3015 -7.3039 -0.1495 10.0694 0.1942 8.1279 -11.9348 -3.0422 -1.4726 -13.5405 1.1609
